<?xml version="1.0" standalone="no"?>
<!DOCTYPE svg PUBLIC "-//W3C//DTD SVG 20010904//EN"
 "http://www.w3.org/TR/2001/REC-SVG-20010904/DTD/svg10.dtd">
<svg version="1.0" xmlns="http://www.w3.org/2000/svg"
 width="804.000000pt" height="896.000000pt" viewBox="0 0 804.000000 896.000000"
 preserveAspectRatio="xMidYMid meet">

<g transform="translate(0.000000,896.000000) scale(0.100000,-0.100000)"
fill="#000000" stroke="none">
<path d="M3769 7177 c-189 -290 -362 -556 -805 -1234 l-204 -312 186 -286
c152 -232 189 -284 200 -273 10 11 572 869 793 1211 35 54 67 95 72 90 4 -4
117 -177 252 -383 375 -576 1403 -2152 1592 -2440 55 -85 244 -374 419 -642
l318 -488 340 0 c274 0 339 3 335 13 -3 7 -121 190 -262 407 -142 217 -387
593 -545 835 -419 642 -786 1205 -921 1410 -65 99 -224 342 -353 540 -234 360
-717 1100 -1037 1590 -93 143 -173 261 -177 262 -4 1 -95 -134 -203 -300z"/>
<path d="M3685 5513 c-192 -295 -367 -562 -387 -594 l-37 -57 162 -249 c90
-136 174 -265 187 -285 14 -21 27 -38 30 -38 3 1 45 62 93 138 49 75 145 224
214 329 l125 192 87 -132 c48 -72 155 -238 240 -367 599 -919 771 -1182 854
-1310 129 -197 687 -1050 805 -1232 l96 -148 343 0 343 0 -27 43 c-32 49 -439
675 -908 1392 -173 264 -458 701 -633 970 -176 270 -449 688 -607 930 -159
242 -360 550 -447 685 -88 135 -165 250 -171 257 -9 9 -93 -112 -362 -524z"/>
<path d="M2557 5322 c-60 -92 -249 -382 -420 -645 -172 -262 -454 -694 -627
-960 -173 -265 -384 -588 -468 -717 l-154 -235 373 -3 c290 -2 376 1 385 10 7
7 118 175 246 373 206 315 490 751 1005 1540 79 121 142 227 140 235 -2 8 -44
76 -92 150 -49 74 -130 199 -181 278 -52 78 -95 142 -96 142 -2 0 -52 -76
-111 -168z"/>
<path d="M2830 4204 c-339 -521 -701 -1075 -1127 -1728 -129 -198 -237 -365
-240 -373 -4 -11 60 -13 368 -13 l374 0 230 353 c126 193 302 462 390 597 486
741 716 1096 717 1104 2 10 -364 576 -372 575 -3 0 -156 -232 -340 -515z"/>
<path d="M3939 4369 c-90 -139 -167 -257 -171 -263 -3 -6 85 -151 196 -321
258 -396 730 -1119 1061 -1625 142 -217 355 -543 473 -725 119 -181 220 -333
226 -337 16 -11 676 -9 676 1 0 5 -104 168 -231 362 -127 195 -275 420 -328
502 -121 185 -243 372 -346 530 -259 397 -689 1055 -1010 1547 -202 311 -371
569 -375 573 -4 4 -81 -106 -171 -244z"/>
<path d="M3537 3752 c-71 -108 -288 -442 -484 -742 -768 -1178 -1023 -1570
-1023 -1575 0 -3 168 -5 374 -5 l373 0 207 318 c114 174 256 391 316 482 165
253 637 975 696 1067 l53 82 -187 285 c-103 157 -189 286 -192 286 -3 0 -63
-89 -133 -198z"/>
</g>
</svg>
