<?xml version="1.0" encoding="UTF-8"?>
<svg xmlns="http://www.w3.org/2000/svg" xmlns:xlink="http://www.w3.org/1999/xlink" width="3578" height="2922" viewBox="0 0 3578 2922">
<path fill-rule="nonzero" fill="rgb(25, 25, 25)" fill-opacity="1" d="M 1660.710938 2873.75 C 1678.710938 2798.246094 1953.929688 2228.667969 1974.96875 2223.363281 C 1985.359375 2220.742188 2016.339844 2255.402344 2043.820312 2300.382812 C 2145.890625 2467.492188 2356.878906 2863.210938 2347.929688 2870.726562 C 2338.609375 2878.539062 2024.679688 2903.160156 1780.238281 2915.242188 L 1649.269531 2921.71875 Z M 0 2710.496094 C 0 2677.816406 243.96875 2231.695312 566.59375 1674.410156 C 698.164062 1447.148438 805.808594 1255.320312 805.808594 1248.109375 C 805.808594 1240.910156 828.609375 1214.378906 856.476562 1189.171875 C 920.035156 1131.660156 1033.648438 1126.460938 1095.398438 1178.25 C 1118.300781 1197.449219 1173.488281 1279.320312 1218.03125 1360.171875 C 1262.578125 1441.03125 1306.601562 1507.140625 1315.859375 1507.101562 C 1325.109375 1507.070312 1381.289062 1427.140625 1440.699219 1329.5 C 1606.390625 1057.199219 2058.058594 356.800781 2183.609375 177.460938 C 2301.171875 9.53125 2340.789062 -15.761719 2450.179688 7.261719 C 2536.871094 25.511719 2588.429688 88.210938 2731.898438 349.871094 C 2806.589844 486.089844 2979.039062 800.261719 3115.101562 1048.03125 C 3450.730469 1659.179688 3597.378906 1947.960938 3575.351562 1954.347656 C 3545.019531 1963.140625 3408.480469 1897.5 3246.828125 1796.410156 C 3039.878906 1667 2627.140625 1285.691406 2443.941406 1054.648438 C 2352.898438 939.839844 2346.421875 935.378906 2313.558594 964.941406 C 2294.550781 982.050781 2164.941406 1155.878906 2025.558594 1351.238281 C 1226.738281 2470.789062 1170.199219 2546.234375 1145.480469 2525.5 C 1139.671875 2520.632812 1074.878906 2401.324219 1001.480469 2260.367188 C 868.460938 2004.878906 853.453125 1980.089844 840.0625 1993.761719 C 836.171875 1997.730469 760.660156 2117.9375 672.253906 2260.878906 C 583.847656 2403.824219 478.171875 2569.507812 437.421875 2629.066406 L 363.328125 2737.359375 L 181.664062 2737.359375 C 31.339844 2737.359375 0 2732.722656 0 2710.496094 Z M 2549.941406 2116.976562 C 2321.679688 2024.21875 2115.378906 1936.78125 2091.511719 1922.671875 C 2048.550781 1897.28125 2049.871094 1894.070312 2222.769531 1603.640625 C 2318.828125 1442.28125 2400.289062 1307.859375 2403.789062 1304.921875 C 2411.988281 1298.050781 2664.800781 1679.671875 2727.171875 1793.070312 C 2753.378906 1840.710938 2816.21875 1953.769531 2866.839844 2044.300781 C 2980.71875 2247.996094 2998.96875 2287.035156 2979.949219 2286.25 C 2971.710938 2285.925781 2778.210938 2209.738281 2549.941406 2116.976562 Z M 2549.941406 2116.976562 "/>
</svg>
